<svg xmlns="http://www.w3.org/2000/svg" viewBox="0 0 128 128">
  <defs>
    <linearGradient id="bg" x1="0%" y1="0%" x2="100%" y2="100%">
      <stop offset="0%" style="stop-color:#5B4B9E"/>
      <stop offset="100%" style="stop-color:#3A2D6B"/>
    </linearGradient>
  </defs>
  <!-- Background -->
  <rect width="128" height="128" rx="16" fill="url(#bg)"/>
  
  <!-- Workflow nodes -->
  <!-- Start node -->
  <circle cx="32" cy="40" r="10" fill="#4CAF50"/>
  <circle cx="32" cy="40" r="5" fill="white"/>
  
  <!-- Activity nodes -->
  <rect x="56" y="30" width="20" height="20" rx="3" fill="#2196F3"/>
  <rect x="88" y="30" width="20" height="20" rx="3" fill="#2196F3"/>
  
  <!-- Parallel branch nodes -->
  <rect x="56" y="60" width="20" height="20" rx="3" fill="#FF9800"/>
  <rect x="56" y="90" width="20" height="20" rx="3" fill="#FF9800"/>
  
  <!-- End node -->
  <circle cx="96" cy="100" r="10" fill="#F44336"/>
  <circle cx="96" cy="100" r="5" fill="white"/>
  
  <!-- Edges -->
  <path d="M42 40 L56 40" stroke="white" stroke-width="2" fill="none"/>
  <path d="M76 40 L88 40" stroke="white" stroke-width="2" fill="none"/>
  <path d="M66 50 L66 60" stroke="white" stroke-width="2" fill="none"/>
  <path d="M66 80 L66 90" stroke="white" stroke-width="2" fill="none"/>
  <path d="M76 70 L90 70 L90 90" stroke="white" stroke-width="2" fill="none"/>
  <path d="M76 100 L86 100" stroke="white" stroke-width="2" fill="none"/>
  
  <!-- Dapr 'D' stylized -->
  <text x="16" y="118" font-family="Arial, sans-serif" font-size="16" font-weight="bold" fill="rgba(255,255,255,0.6)">Dapr</text>
</svg>
